HIERARCHY
ROOT simHips
{
  OFFSET 89.5287 99.8043 54.2547
  CHANNELS 6 Xposition Yposition Zposition Zrotation Xrotation Yrotation
  JOINT simSpine
  {
    OFFSET -0.000355721 21.3001 -0.016921
    CHANNELS 3 Zrotation Xrotation Yrotation
    JOINT simLeftArm
    {
      OFFSET 13.5181 21.3012 0
      CHANNELS 3 Zrotation Xrotation Yrotation
      JOINT simLeftForeArm
      {
        OFFSET 24.5783 0 0
        CHANNELS 3 Zrotation Xrotation Yrotation
        JOINT simLeftHand
        {
          OFFSET 24.5783 0 0
          CHANNELS 3 Zrotation Xrotation Yrotation
          End Site
          {
            OFFSET 7.32568 1.52588e-05 0.0169305
          }
        }
      }
    }
    JOINT simHead
    {
      OFFSET 0 27.4458 -0.00489235
      CHANNELS 3 Zrotation Xrotation Yrotation
      End Site
      {
        OFFSET 0 0 0
      }
    }
    JOINT simRightArm
    {
      OFFSET -13.5174 21.3012 0
      CHANNELS 3 Zrotation Xrotation Yrotation
      JOINT simRightForeArm
      {
        OFFSET -24.5783 0 0
        CHANNELS 3 Zrotation Xrotation Yrotation
        JOINT simRightHand
        {
          OFFSET -24.5783 0 0
          CHANNELS 3 Zrotation Xrotation Yrotation
          End Site
          {
            OFFSET -7.32568 1.52588e-05 0.0169305
          }
        }
      }
    }
  }
  JOINT simRightUpLeg
  {
    OFFSET -8.44614 -9.41038 0.835684
    CHANNELS 3 Zrotation Xrotation Yrotation
    JOINT simRightLeg
    {
      OFFSET 0 -40.9639 0
      CHANNELS 3 Zrotation Xrotation Yrotation
      JOINT simRightFoot
      {
        OFFSET 0 -40.9639 0
        CHANNELS 3 Zrotation Xrotation Yrotation
        End Site
        {
          OFFSET 0.50614 -9.67405 14.6709
        }
      }
    }
  }
  JOINT simLeftUpLeg
  {
    OFFSET 8.44614 -9.41038 0.835684
    CHANNELS 3 Zrotation Xrotation Yrotation
    JOINT simLeftLeg
    {
      OFFSET 0 -40.9639 0
      CHANNELS 3 Zrotation Xrotation Yrotation
      JOINT simLeftFoot
      {
        OFFSET 0 -40.9639 0
        CHANNELS 3 Zrotation Xrotation Yrotation
        End Site
        {
          OFFSET -0.50614 -9.67405 14.6709
        }
      }
    }
  }
}
MOTION
Frames:	22
Frame Time:	0.0333333
-92.8642 89.0111 50.9605 1.74011 5.09475 -67.7625 6.52818 25.0016 45.8494 -50.1453 -21.2175 39.638 18.0673 -21.8757 -106.668 12.0745 -27.132 5.16664 -22.309 -47.3511 -43.1664 -9.70797 -6.45872 19.6368 -3.99795 -0.85659 8.4693 -12.7048 -5.21688 5.41587 -22.4525 8.71119 -4.2507 10.3443 37.0614 -4.51547 6.1128 -5.90303 -9.04098 13.7747 -44.7985 12.0194 -16.9462 39.8837 6.82039 7.85267 -0.346233 7.17144 
-92.8446 89.3061 52.2519 -0.0209149 4.75574 -66.7084 10.9206 30.6103 40.8399 -34.1349 -22.0278 36.6069 18.0769 -20.9748 -103.562 12.5966 -26.2447 2.36028 -15.0777 -45.6953 -39.0869 -5.89345 3.22849 20.0155 -2.35001 -0.429918 4.95238 -5.6119 -3.57961 2.64872 -25.6775 1.07272 -5.31403 11.7691 40.7283 -5.60785 5.88373 -8.04448 -7.463 12.4622 -42.5163 11.6857 -16.8535 39.7433 6.80613 8.72724 -1.02941 6.44825 
-92.9562 89.211 52.7912 -0.866872 3.64393 -66.0484 12.8147 34.8478 35.0211 -14.3249 -24.0169 29.8307 18.5096 -19.0986 -97.1217 14.8665 -26.9384 -0.108823 -6.67377 -42.1889 -34.3908 7.13317 -2.67621 17.2262 0.202428 0.0252 -0.00119362 -9.51428 -12.9788 -1.57543 -29.3481 -7.91173 -6.94005 12.9296 43.409 -6.52118 6.19476 -7.58199 -6.33002 10.8726 -41.4249 10.7805 -17.2341 40.384 7.0952 8.63291 -1.94532 6.57195 
-93.3639 88.7167 52.67 -1.42195 2.67092 -64.6375 13.5134 37.4301 26.9775 6.83046 -28.6767 22.7036 18.5181 -17.002 -90.1104 19.6661 -27.7724 -1.37132 1.34147 -36.0293 -29.457 19.5119 -11.7788 12.5819 -0.0526347 -0.0108038 0.108533 -20.891 -19.496 -7.82205 -31.9605 -16.6184 -9.29597 13.5894 44.8334 -7.04464 8.14881 -7.92773 -2.59623 9.75101 -41.2314 9.82009 -18.1013 41.7743 7.74065 9.64383 -2.5 5.46883 
-94.1614 87.9645 52.2127 -2.65096 2.23293 -62.3364 14.7447 39.2614 16.1362 24.4399 -35.163 12.1611 18.2061 -14.6378 -82.2268 19.2778 -23.0846 -4.4137 7.31412 -27.0939 -24.6143 28.2136 -19.4945 9.0771 -0.399024 -0.0612223 0.834599 -19.027 -24.6233 -3.7077 -32.5814 -23.1003 -11.737 12.9724 43.6214 -6.52065 12.4509 -7.14997 2.71431 9.49031 -41.0183 8.47897 -19.498 43.8577 8.8062 12.3744 -2.92776 3.47402 
-95.3835 87.2073 51.6898 -3.48338 1.62466 -61.1324 14.1976 39.8389 4.90658 32.0291 -35.7414 -1.83235 17.8459 -13.1925 -77.3441 22.641 -19.8546 -4.99078 10.7299 -19.7547 -20.8349 32.3422 -13.1262 4.89618 -1.89872 -0.331708 3.99713 -17.6188 -27.225 -3.05041 -32.5872 -28.2301 -14.2031 10.7707 38.7041 -4.79782 16.2942 -1.66211 5.74931 10.1825 -40.9442 8.279 -21.5039 46.5717 10.337 14.0096 -4.42395 1.99812 
-97.1595 86.5091 51.5087 -3.91906 0.31803 -62.0689 12.1848 39.4453 -5.06227 22.3563 -28.0136 -16.5563 18.0444 -13.9232 -79.8227 21.4996 -19.7535 -4.75764 9.48545 -14.8235 -16.348 35.0844 -3.63638 1.81518 -4.75273 -1.08867 10.0979 -16.0896 -21.5491 -0.147148 -31.2352 -32.197 -15.3495 6.11957 31.5322 -1.90249 20.2053 10.8815 7.03314 11.39 -40.0608 9.65322 -24.006 49.5512 12.2952 15.0667 -6.94826 1.51176 
-99.826 85.7522 51.6337 -5.0276 -2.25037 -64.8233 8.59086 39.1297 -12.4859 5.82552 -10.5259 -22.2627 18.1074 -14.1873 -80.7133 23.1368 -19.6465 -3.79345 7.43749 -12.1036 -11.8799 37.2601 5.83233 -0.989808 -8.32501 -2.52054 17.9846 -16.0152 -16.1592 1.42029 -29.1554 -33.8857 -13.535 3.56737 27.1953 -0.525779 21.852 19.7701 3.61038 13.2367 -37.5326 12.5414 -28.4391 53.9226 15.8896 15.3491 -10.2471 1.22319 
-103.112 84.9589 51.7529 -7.62864 -4.60694 -68.0935 4.30733 38.1688 -16.7628 -15.9868 7.5833 -16.9315 17.9559 -13.5857 -78.6805 25.5364 -20.3315 0.964826 8.99101 -14.2595 -10.0177 39.2527 13.7067 -4.4545 -10.5506 -3.71992 23.112 -12.3429 -15.5964 2.51115 -26.7329 -32.4529 -10.7976 5.15123 29.7606 -1.50066 13.3086 16.7974 2.64192 16.5641 -33.9323 15.5999 -36.1754 59.4916 22.4963 14.4168 -12.8855 0.668919 
-106.898 84.0241 51.9983 -8.99073 -5.24976 -71.0296 1.7691 34.9994 -17.8344 -46.5233 14.9469 -1.78341 17.6493 -12.5705 -75.2137 24.583 -19.3416 5.71114 10.0682 -25.7784 -11.0279 41.8324 18.3132 -10.7752 -12.3194 -4.86462 27.3454 -8.37503 -15.3269 3.49991 -26.988 -34.0257 -7.95046 10.3168 37.7672 -4.553 9.17028 9.63942 4.09736 20.8288 -31.9959 18.0091 -47.1706 64.5393 32.3142 12.9746 -15.0162 -0.0245188 
-110.515 83.4256 52.8078 -10.0146 -4.61364 -75.3072 1.25898 31.9177 -14.872 -75.0119 7.88878 15.8913 17.447 -12.003 -73.2496 24.5295 -21.5794 9.26866 8.76148 -46.6812 -10.0245 45.6987 19.3042 -20.4156 -14.1801 -6.28791 32.02 -6.63611 -17.6709 2.31487 -26.1484 -37.5594 -7.68894 13.9308 45.7032 -7.31159 7.2298 8.33764 5.89623 24.7983 -29.3834 19.3725 -57.9379 67.5307 42.2083 11.0005 -17.4338 -0.455306 
-113.996 82.8389 53.4872 -9.42366 -4.322 -79.768 -0.0147288 26.8834 -7.00072 -89.3487 0.625493 31.1481 17.7228 -12.7951 -75.9856 25.4771 -26.2786 13.0663 3.2437 -67.0704 -7.47009 51.4495 13.4883 -32.5668 -15.8203 -7.75383 36.3716 -5.84841 -19.5661 0.470561 -25.391 -41.4696 -7.2927 16.9345 50.868 -9.80661 5.18485 6.58535 5.32032 27.14 -27.268 20.7327 -66.3708 69.0115 50.0638 8.93692 -20.0858 -0.43092 
-116.57 82.5528 54.1804 -9.68988 -3.78126 -82.1299 0.301592 21.5147 -0.55799 -88.8747 -15.765 45.3168 18.3231 -15.2713 -84.3462 17.7549 -20.3323 8.33379 12.6022 -76.5337 10.2446 54.0946 3.31947 -40.1875 -17.0502 -9.0096 39.8247 -3.79316 -22.3326 -1.07465 -23.497 -41.5153 -5.88995 17.9464 52.3425 -10.7105 2.77271 2.89677 4.43274 26.4665 -25.7698 17.4842 -70.3774 69.5129 53.8077 7.03979 -22.989 0.682277 
-117.588 82.3051 54.607 -11.9591 -3.14692 -83.1155 1.89199 19.7283 1.2915 -71.646 -29.9683 54.1994 18.5417 -17.5402 -91.9025 15.8425 -20.8552 9.47761 21.9019 -69.8086 19.413 53.3914 -2.11314 -39.3652 -18.7953 -11.0776 45.1085 -1.60319 -24.7702 -0.302562 -21.1007 -40.0416 -2.92762 19.0856 53.8966 -11.6812 2.61521 1.49746 3.65488 24.6381 -23.7586 11.9707 -72.0887 69.6912 55.4052 5.68243 -25.2658 2.29949 
-117.286 81.9883 54.9303 -15.3675 -3.13118 -84.3932 3.60347 20.3114 1.48835 -51.9447 -28.2005 52.6508 18.531 -18.7289 -95.8778 18.9766 -23.3559 10.3657 12.5888 -52.0671 5.31764 51.0624 0.172804 -32.4863 -20.5449 -13.6011 51.068 -0.313821 -24.9119 1.84728 -19.0247 -37.5032 -0.511109 18.8991 53.6458 -11.5329 1.39533 2.16252 2.05048 22.3566 -20.3777 7.25641 -71.455 69.6257 54.816 5.34443 -27.2623 2.58089 
-116.375 81.9213 55.1984 -17.9569 -3.78309 -86.533 3.03217 19.7399 0.260367 -36.3431 -19.8154 40.6239 18.4953 -19.2909 -97.7702 16.2364 -23.1989 7.70859 10.0748 -23.0468 -4.08938 48.6288 6.05463 -19.0264 -21.1712 -14.6568 53.4468 -0.27672 -25.2997 3.57026 -17.2871 -35.2735 3.44897 17.6586 51.9095 -10.4627 1.68063 2.91123 1.42251 19.3535 -16.6163 3.47187 -66.9001 69.0813 50.5519 5.41249 -29.3209 0.744355 
-114.817 82.5997 55.5234 -19.5894 -4.00388 -88.5654 2.0745 18.1569 -0.667101 -22.6785 -11.7811 18.9117 18.548 -18.0118 -93.4762 14.657 -22.3386 1.44345 8.27599 3.67598 -10.571 50.6629 9.47436 -6.41974 -21.7877 -15.7998 55.9615 0.976897 -23.7866 6.14919 -15.5056 -32.785 6.74136 14.8711 47.3844 -8.12334 2.74643 6.02416 0.822126 16.7338 -13.5927 -0.0463924 -59.6567 67.8811 43.7729 4.40286 -29.9607 0.79626 
-112.375 83.2411 55.7526 -20.852 -3.29258 -89.7628 0.239437 17.504 -2.91046 -12.4189 -9.73057 -1.401 18.4984 -16.7151 -89.1553 16.1498 -20.7809 -3.07343 10.0093 18.208 -12.7488 55.3127 15.8148 3.71813 -22.6201 -17.5629 59.743 5.02812 -24.3553 9.30354 -13.5934 -29.9244 8.50812 11.6643 40.8424 -5.57142 4.31148 11.1547 0.499644 15.0504 -11.5613 -3.62559 -50.8654 65.7307 35.6355 3.97822 -31.0809 1.51321 
-109.191 83.9166 55.9393 -21.4228 -1.81662 -89.7752 -1.51898 18.2383 -7.80018 -7.92673 -9.59668 -15.9041 18.4996 -16.7864 -89.3927 17.1539 -23.5438 -2.76349 11.7044 25.0109 -11.7704 60.0353 24.8331 9.98492 -23.8687 -21.0118 66.9088 7.70107 -21.2534 11.8357 -11.8147 -26.6242 6.65569 6.96997 32.3695 -2.471 8.75185 16.9057 1.42574 14.3538 -11.858 -5.90032 -44.2251 63.4241 29.5881 4.56859 -30.7779 4.35251 
-105.571 84.741 56.1145 -21.3349 0.00721959 -89.3739 -2.38058 20.0614 -12.9439 -7.80292 -7.01551 -27.0261 18.5051 -16.7953 -89.4223 19.6769 -21.3643 -2.99177 11.6649 26.7294 -8.56111 63.0819 33.1555 13.8917 -24.6607 -24.5399 74.0933 9.20107 -18.8002 12.599 -10.1743 -23.4321 5.42944 3.02834 23.4685 -0.321961 17.7758 20.357 3.36736 15.1514 -13.6211 -6.44869 -39.5688 61.3324 25.4007 4.8873 -28.379 6.28453 
-101.889 85.7668 56.4305 -19.4298 2.19036 -91.0192 -1.96617 21.2542 -15.0642 -11.2143 -0.828003 -32.448 18.4985 -16.7181 -89.1654 19.6634 -19.4302 -1.18864 9.72152 25.1406 -4.16173 64.0892 36.2635 14.7051 -24.9709 -28.1398 81.463 9.33098 -14.4002 12.7054 -8.87055 -25.4699 7.16929 3.52738 24.9922 -0.552116 20.247 14.3287 8.29724 17.4115 -16.036 -3.95925 -34.827 58.6642 21.2322 4.8582 -25.3908 6.073 
-98.3216 86.7417 56.7926 -17.6127 3.12759 -94.2218 -2.85664 22.2527 -14.3185 -18.3242 9.61033 -29.3492 18.5262 -17.1748 -90.6854 19.0448 -18.4254 -0.23343 8.81025 21.1388 -0.74913 62.9485 33.446 12.5476 -24.8539 -30.8701 87.1992 8.65198 -14.8847 12.5546 -10.5041 -28.3397 6.62648 8.02543 33.5967 -2.96609 16.9371 5.22304 6.50247 18.2888 -17.5316 -1.23846 -30.3938 55.5385 17.4347 4.42481 -21.9814 6.73444 
